:version 1.10
:name ASF
:units
  mass 1
  length 1
  angle deg
:documentation
  ASF file generated by Kaydara
:root
  axis xyz
  order  tx ty tz rx ry rz
  position 0 0 0
  orientation 0 0 0
:bonedata
  begin
    id 1
    name RightUpLegDummy
    direction -0.718183 -0.695806 0.00816078
    length 4.904
    axis 0 0 0 xyz
  end
  begin
    id 2
    name RightUpLeg
    direction -0.0736652 -0.994202 0.0783343
    length 17.4976
    axis -2.72909 -3.00389 -4.00133 xyz
    dof rx ry rz
  end
  begin
    id 3
    name RightLeg
    direction -0.0389037 -0.994596 -0.0962598
    length 16.5821
    axis 3.95836 -18.5909 -4.46993 xyz
    dof rx ry rz
  end
  begin
    id 4
    name RightFoot
    direction -0.311643 -0.412678 0.855906
    length 3.77069
    axis -1.99483 -18.8351 -3.27644 xyz
    dof rx ry rz
  end
  begin
    id 5
    name RightToes
    direction -0.317852 0.0389852 0.947339
    length 3.85082
    axis -2.00228 -18.1713 -3.25211 xyz
    dof rx ry rz
  end
  begin
    id 6
    name SpineDummy
    direction 8.3039e-015 1 4.44677e-016
    length 4.6813
    axis 0 0 0 xyz
  end
  begin
    id 7
    name Spine
    direction -0.000262373 0.999988 0.00493267
    length 10.1015
    axis -0.00246081 0.00062579 0.0150362 xyz
    dof rx ry rz
  end
  begin
    id 8
    name Spine1
    direction 0 0 0
    length 0
    axis -0.00349562 0.000650293 0.0196666 xyz
    dof rx ry rz
  end
  begin
    id 9
    name HEadDummy
    direction -0.000343232 0.999999 0.00123745
    length 3.43865
    axis -0.00349562 0.000650293 0.0196666 xyz
  end
  begin
    id 10
    name HEad
    direction -0.0461221 0.980933 0.188796
    length 5.12695
    axis -0.00351404 -7.04812 0.0199272 xyz
    dof rx ry rz
  end
  begin
    id 11
    name LeftShoulder1Dummy
    direction 0.998904 -0.0399089 -0.0244534
    length 3.5433
    axis -0.00349562 0.000650293 0.0196666 xyz
  end
  begin
    id 12
    name LeftShoulder1
    direction 0.99951 1.64443e-005 0.0312999
    length 4.05031
    axis -0.00349562 0.000650293 0.0196666 xyz
    dof rx ry rz
  end
  begin
    id 13
    name LeftArm
    direction 0.984791 0.0515299 0.165927
    length 12.9126
    axis -64.823 -10.7743 5.20463 xyz
    dof rx ry rz
  end
  begin
    id 14
    name LeftForeArm
    direction 0.984968 0.0534808 0.16425
    length 10.8596
    axis -30.0462 -7.70601 1.87451 xyz
    dof rx ry rz
  end
  begin
    id 15
    name LeftHand
    direction 0.975871 0.0289682 0.216418
    length 6.62295
    axis -20.1348 -6.98077 1.86072 xyz
    dof rx ry rz
  end
  begin
    id 16
    name RightShoulderDummy
    direction -0.998877 -0.0405946 -0.0244307
    length 3.5433
    axis -0.00349562 0.000650293 0.0196666 xyz
  end
  begin
    id 17
    name RightShoulder
    direction -0.998933 -0.0249743 -0.0388558
    length 4.05031
    axis -0.0205316 -4.02113 1.41395 xyz
    dof rx ry rz
  end
  begin
    id 18
    name RightArm
    direction -0.997559 0.068664 0.0127103
    length 12.9638
    axis -67.3882 1.84188 -6.15987 xyz
    dof rx ry rz
  end
  begin
    id 19
    name RightForeArm
    direction -0.991508 0.0912848 0.0926241
    length 10.8312
    axis -22.1975 3.41087 -4.28711 xyz
    dof rx ry rz
  end
  begin
    id 20
    name RightHand
    direction -0.989262 0.0600788 0.133232
    length 6.57864
    axis -12.2911 2.17515 -4.39675 xyz
    dof rx ry rz
  end
  begin
    id 21
    name LeftUpLegDummy
    direction 0.718183 -0.695806 0.00816078
    length 4.904
    axis 0 0 0 xyz
  end
  begin
    id 22
    name LeftUpLeg
    direction 0.0831398 -0.99469 0.0606531
    length 17.4976
    axis -1.71016 2.29552 4.63832 xyz
    dof rx ry rz
  end
  begin
    id 23
    name LeftLeg
    direction 0.0498442 -0.991778 -0.117862
    length 16.5821
    axis 5.13757 15.5727 5.13348 xyz
    dof rx ry rz
  end
  begin
    id 24
    name LeftFoot
    direction 0.269026 -0.433896 0.85986
    length 3.77069
    axis -0.576502 15.6961 4.10267 xyz
    dof rx ry rz
  end
  begin
    id 25
    name LeftToes
    direction 0.277311 0.0251143 0.960452
    length 3.85048
    axis -0.576502 15.6961 4.10267 xyz
    dof rx ry rz
  end
:hierarchy
  begin
    root RightUpLegDummy SpineDummy LeftUpLegDummy
    RightUpLegDummy RightUpLeg
    RightUpLeg RightLeg
    RightLeg RightFoot
    RightFoot RightToes
    SpineDummy Spine
    Spine Spine1
    Spine1 HEadDummy LeftShoulder1Dummy RightShoulderDummy
    HEadDummy HEad
    LeftShoulder1Dummy LeftShoulder1
    LeftShoulder1 LeftArm
    LeftArm LeftForeArm
    LeftForeArm LeftHand
    RightShoulderDummy RightShoulder
    RightShoulder RightArm
    RightArm RightForeArm
    RightForeArm RightHand
    LeftUpLegDummy LeftUpLeg
    LeftUpLeg LeftLeg
    LeftLeg LeftFoot
    LeftFoot LeftToes
  end

:SAMPLES-PER-SECOND 30
:FULLY-SPECIFIED
:DEGREES
77
root  -8.40566 39.5735 42.5375 1.21846 -4.50795 -0.777943
RightUpLeg  -13.012 -0.77996 3.67238
RightLeg  14.4518 9.25414 1.20387
RightFoot  -3.94017 0.19165 -2.29633
RightToes  -5.82073e-011 -3.18055e-015 -2.98177e-016
Spine  6.75731 -1.42443 4.88967
Spine1  -3.7693 -0.883511 0.703247
HEad  -9.87083 -5.19388 3.04737
LeftShoulder1  -3.88251e-019 9.70628e-020 -3.87848e-018
LeftArm  8.70516 52.1567 -70.7306
LeftForeArm  -10.4956 -57.2046 17.6536
LeftHand  -0.384645 -9.30266 3.40912
RightShoulder  6.40011 9.81089 31.207
RightArm  37.8463 -49.3153 13.5632
RightForeArm  -14.2134 51.1724 -33.1331
RightHand  -1.83481 8.50824 -15.2607
LeftUpLeg  -8.09662 1.51142 0.4583
LeftLeg  25.3551 3.41616 9.77381
LeftFoot  -13.3412 -0.0564125 -8.42789
LeftToes  5.79026e-011 9.70705e-012 -3.73859e-011
78
root  -8.28535 39.1925 42.0114 -0.130025 -4.20353 -3.34753
RightUpLeg  -12.6271 -0.572311 5.8318
RightLeg  15.8637 8.15366 1.75178
RightFoot  -4.6541 0.257189 -3.29427
RightToes  -5.82073e-011 -3.18055e-015 -2.98177e-016
Spine  8.13665 -1.74154 7.96479
Spine1  -2.75944 -0.796854 0.410645
HEad  -10.9931 -5.8434 3.50171
LeftShoulder1  -3.88251e-019 9.70628e-020 -3.87848e-018
LeftArm  7.68527 48.1655 -72.4466
LeftForeArm  -15.1557 -57.1009 17.2016
LeftHand  -1.0017 -9.89696 8.0593
RightShoulder  6.85921 10.0578 33.1212
RightArm  36.251 -43.6673 15.2055
RightForeArm  -16.9226 52.3753 -34.5453
RightHand  -2.20716 8.60061 -18.119
LeftUpLeg  -5.52474 2.87207 3.43828
LeftLeg  26.7544 1.75287 9.42046
LeftFoot  -15.0593 -0.195819 -9.18563
LeftToes  5.79026e-011 9.70705e-012 -3.73859e-011
79
root  -8.11068 39.0894 41.5207 -0.704625 -3.8767 -5.87102
RightUpLeg  -11.9286 0.332566 7.77744
RightLeg  14.7112 6.51333 2.36292
RightFoot  -3.14469 0.287478 -3.24818
RightToes  -5.82073e-011 -3.18055e-015 -2.98177e-016
Spine  8.30929 -1.91222 9.186
Spine1  -1.45718 -1.15158 1.67619
HEad  -11.8597 -5.7206 3.08187
LeftShoulder1  -3.88251e-019 9.70628e-020 -3.87848e-018
LeftArm  2.10046 45.104 -76.5868
LeftForeArm  -13.3511 -53.1699 14.6808
LeftHand  -1.8164 -11.1177 13.3039
RightShoulder  7.25558 10.2683 34.7285
RightArm  32.4455 -37.2094 19.0368
RightForeArm  -12.2107 48.5839 -30.0023
RightHand  -2.79087 9.16934 -21.9646
LeftUpLeg  -3.6724 2.15281 5.71162
LeftLeg  25.4184 2.2009 9.17065
LeftFoot  -17.6762 -0.366417 -7.98817
LeftToes  5.79026e-011 9.70705e-012 -3.73859e-011
80
root  -7.92937 39.2587 41.0375 -0.427286 -2.65372 -6.30538
RightUpLeg  -11.5002 1.22769 7.81827
RightLeg  11.483 4.67588 2.35568
RightFoot  -0.407461 0.262126 -2.39396
RightToes  -5.82073e-011 -3.18055e-015 -2.98177e-016
Spine  7.85135 -2.08665 5.94807
Spine1  -1.18719 -2.30827 5.31576
HEad  -11.32 -5.29653 2.5799
LeftShoulder1  -3.88251e-019 9.70628e-020 -3.87848e-018
LeftArm  -5.6441 43.1057 -81.7191
LeftForeArm  -10.2255 -45.5199 11.0843
LeftHand  -2.60551 -11.2709 18.7638
RightShoulder  7.15399 10.2275 34.2889
RightArm  25.4811 -33.1454 25.2182
RightForeArm  -3.96326 40.4118 -22.9362
RightHand  -2.98985 8.98817 -23.7549
LeftUpLeg  -3.32878 -1.53899 5.05873
LeftLeg  22.2612 5.11129 9.3647
LeftFoot  -17.8193 -0.298244 -5.95613
LeftToes  5.79026e-011 9.70705e-012 -3.73859e-011
81
root  -7.75304 39.4847 40.5044 0.387431 -0.619507 -4.52688
RightUpLeg  -11.8965 1.43834 5.90918
RightLeg  8.25219 3.0618 1.58088
RightFoot  1.76527 0.220727 -1.78316
RightToes  -5.82073e-011 -3.18055e-015 -2.98177e-016
Spine  7.39141 -2.3738 0.196208
Spine1  -1.87566 -3.59376 9.16133
HEad  -9.66996 -5.5177 3.14259
LeftShoulder1  -3.88251e-019 9.70628e-020 -3.87848e-018
LeftArm  -9.43162 41.1192 -85.2843
LeftForeArm  -13.3838 -36.1719 7.76994
LeftHand  -2.81896 -9.52715 22.5768
RightShoulder  6.91239 10.1363 33.2338
RightArm  15.0413 -31.9375 31.067
RightForeArm  1.94082 32.0443 -17.5078
RightHand  -2.47564 7.27806 -22.2796
LeftUpLeg  -4.24034 -6.634 2.1375
LeftLeg  19.3061 8.88038 9.65588
LeftFoot  -15.2776 -0.131453 -4.78479
LeftToes  5.79026e-011 9.70705e-012 -3.73859e-011
82
root  -7.53412 39.6194 39.9014 1.1976 0.832032 -2.29618
RightUpLeg  -12.9963 1.01495 3.52178
RightLeg  6.45401 2.10329 0.781842
RightFoot  3.12245 0.145598 -1.15676
RightToes  -5.82073e-011 -3.18055e-015 -2.98177e-016
Spine  7.30443 -2.35202 -3.5241
Spine1  -2.48877 -3.84566 9.77814
HEad  -8.52884 -6.93336 4.89866
LeftShoulder1  -3.88251e-019 9.70628e-020 -3.87848e-018
LeftArm  -8.69447 38.3054 -85.6889
LeftForeArm  -18.2981 -27.2128 3.49289
LeftHand  -2.19053 -6.75639 21.4937
RightShoulder  6.97761 10.2073 33.4173
RightArm  4.74619 -32.1005 34.0722
RightForeArm  0.903048 26.7823 -14.4319
RightHand  -1.70172 4.00634 -20.7628
LeftUpLeg  -5.43363 -8.85775 -0.632776
LeftLeg  17.496 10.293 9.32573
LeftFoot  -12.8215 -0.0241121 -4.26469
LeftToes  5.79026e-011 9.70705e-012 -3.73859e-011
83
root  -7.21734 39.6833 39.2408 1.18211 0.38203 -0.818346
RightUpLeg  -13.9227 0.284014 1.68591
RightLeg  5.88723 2.7403 0.727335
RightFoot  4.41557 -0.0525634 0.173965
RightToes  -5.82073e-011 -3.18055e-015 -2.98177e-016
Spine  8.27294 -1.553 -3.25832
Spine1  -2.62091 -2.51084 5.96515
HEad  -9.18007 -9.15996 7.18417
LeftShoulder1  -3.88251e-019 9.70628e-020 -3.87848e-018
LeftArm  -15.8334 35.1378 -83.4754
LeftForeArm  -5.15534 -19.8061 -4.42275
LeftHand  -1.11499 -4.30354 13.9013
RightShoulder  7.17561 10.3301 34.1769
RightArm  -0.932291 -32.7261 34.825
RightForeArm  -7.25601 23.9632 -12.5933
RightHand  -1.23772 1.05784 -21.7321
LeftUpLeg  -5.69215 -6.3894 -2.43888
LeftLeg  16.1181 8.70016 8.21735
LeftFoot  -11.7612 0.00909998 -3.49295
LeftToes  5.79026e-011 9.70705e-012 -3.73859e-011
84
root  -6.82193 39.6972 38.5544 0.286362 -1.86048 0.367536
RightUpLeg  -14.5333 -0.484295 0.220355
RightLeg  6.05962 5.61955 1.12232
RightFoot  5.23654 -0.253438 1.39785
RightToes  -5.82073e-011 -3.18055e-015 -2.98177e-016
Spine  10.4942 -0.243178 -1.27765
Spine1  -2.47146 -0.250552 0.0303356
HEad  -11.4947 -11.2643 9.42966
LeftShoulder1  -3.88251e-019 9.70628e-020 -3.87848e-018
LeftArm  -19.4141 33.1895 -80.9841
LeftForeArm  12.6897 -14.78 -6.7835
LeftHand  -0.272443 -4.02291 4.03135
RightShoulder  7.18462 10.3727 34.1291
RightArm  -1.6145 -33.9001 34.9288
RightForeArm  -14.6885 22.4104 -11.4707
RightHand  -1.05113 0.0906365 -21.5528
LeftUpLeg  -4.99322 -2.02909 -4.07393
LeftLeg  14.8836 6.91874 7.07717
LeftFoot  -11.221 0.0105621 -2.50355
LeftToes  5.79026e-011 9.70705e-012 -3.73859e-011
85
root  -6.43465 39.6428 37.8967 -0.625851 -4.49228 1.68818
RightUpLeg  -15.6499 -1.44763 -0.978325
RightLeg  7.07616 9.42618 1.36559
RightFoot  4.39633 -0.224926 1.27715
RightToes  -5.82073e-011 -3.18055e-015 -2.98177e-016
Spine  12.7275 0.871814 -0.395842
Spine1  -1.98754 1.6431 -4.51177
HEad  -14.4508 -12.4129 11.134
LeftShoulder1  -3.88251e-019 9.70628e-020 -3.87848e-018
LeftArm  -16.9415 33.9101 -78.6069
LeftForeArm  25.7809 -15.1686 -5.80145
LeftHand  0.0624281 -5.59803 -0.440257
RightShoulder  7.12134 10.3975 33.7495
RightArm  0.995928 -35.3299 34.3424
RightForeArm  -13.4649 22.1772 -11.3771
RightHand  -0.847287 0.375222 -16.7097
LeftUpLeg  -4.75323 0.527833 -5.83027
LeftLeg  14.6627 7.34043 6.69605
LeftFoot  -10.711 0.00822247 -1.77548
LeftToes  5.79026e-011 9.70705e-012 -3.73859e-011
86
root  -6.1238 39.5453 37.3347 -0.86785 -6.15208 2.44093
RightUpLeg  -17.6349 -3.63372 -1.13707
RightLeg  9.23131 11.4257 1.32027
RightFoot  1.85686 -0.070778 0.421043
RightToes  -5.82073e-011 -3.18055e-015 -2.98177e-016
Spine  13.6736 1.35749 -0.872661
Spine1  -1.1609 2.37987 -5.91822
HEad  -16.95 -12.289 11.7434
LeftShoulder1  -3.88251e-019 9.70628e-020 -3.87848e-018
LeftArm  -11.7324 37.5567 -76.0735
LeftForeArm  27.1618 -18.8091 -4.07987
LeftHand  -0.259596 -5.93036 3.02299
RightShoulder  7.22857 10.4744 34.1318
RightArm  4.87801 -36.4592 32.506
RightForeArm  -2.84599 22.8781 -12.2371
RightHand  -0.724689 2.41317 -10.7759
LeftUpLeg  -5.88494 1.62918 -7.05611
LeftLeg  15.772 8.03069 7.2228
LeftFoot  -10.6028 -2.11502e-005 -1.30831
LeftToes  5.79026e-011 9.70705e-012 -3.73859e-011
87
root  -5.89457 39.491 36.9125 -0.641615 -6.61179 1.99483
RightUpLeg  -19.4045 -6.90886 0.187681
RightLeg  11.5432 9.72901 0.646212
RightFoot  -0.779849 -0.033825 0.274165
RightToes  -5.82073e-011 -3.18055e-015 -2.98177e-016
Spine  13.6608 1.17062 -1.45863
Spine1  -0.378129 1.99383 -4.82923
HEad  -18.2085 -11.1631 11.2739
LeftShoulder1  -3.88251e-019 9.70628e-020 -3.87848e-018
LeftArm  -6.73163 43.2851 -73.5241
LeftForeArm  17.1735 -21.7817 -2.02943
LeftHand  -1.0945 -6.02226 11.5403
RightShoulder  7.43759 10.5535 35.0236
RightArm  8.53507 -37.8334 29.8632
RightForeArm  9.44615 23.8003 -13.2195
RightHand  -0.89167 5.18529 -9.68115
LeftUpLeg  -7.496 2.32049 -7.05104
LeftLeg  17.0701 7.61067 7.93914
LeftFoot  -10.6588 -0.0109183 -0.843922
LeftToes  5.79026e-011 9.70705e-012 -3.73859e-011
88
root  -5.73415 39.5061 36.6212 -0.608596 -6.44437 1.03181
RightUpLeg  -20.1903 -10.3052 2.13355
RightLeg  13.4667 6.37422 -1.18559
RightFoot  -2.45704 -0.0419531 0.442739
RightToes  -5.82073e-011 -3.18055e-015 -2.98177e-016
Spine  13.5863 0.659142 -2.07892
Spine1  0.0409178 1.06515 -2.84403
HEad  -18.0177 -9.67987 10.4003
LeftShoulder1  -3.88251e-019 9.70628e-020 -3.87848e-018
LeftArm  -7.75482 49.8841 -70.8557
LeftForeArm  7.059 -22.1735 -1.59815
LeftHand  -2.05867 -8.0111 18.614
RightShoulder  7.53857 10.5775 35.4808
RightArm  11.853 -40.4996 26.9645
RightForeArm  15.0926 24.6004 -13.8486
RightHand  -1.31864 6.04706 -13.3305
LeftUpLeg  -8.35892 1.96735 -6.35724
LeftLeg  17.6673 7.59898 8.36296
LeftFoot  -10.3408 -0.0169373 -0.458895
LeftToes  5.79026e-011 9.70705e-012 -3.73859e-011
